<svg xmlns="http://www.w3.org/2000/svg" xmlns:xlink="http://www.w3.org/1999/xlink" viewBox="0 0 61.55 30"><defs><style>.a{fill:url(#a);}</style><linearGradient id="a" x1="30.4" y1="29.68" x2="30.4" y2="0.25" gradientUnits="userSpaceOnUse"><stop offset="0" stop-color="#258717"/><stop offset="1" stop-color="#48a418"/></linearGradient></defs><path class="a" d="M60.39,11.5a.32.32,0,0,0-.41-.2h0a6.25,6.25,0,0,1-2.75.41A9.21,9.21,0,0,1,54.46,11,26.29,26.29,0,0,1,49.4,8.2C47.79,7.11,46.19,6,44.56,4.89A37.74,37.74,0,0,0,39.41,2a21,21,0,0,0-2.81-1A13.72,13.72,0,0,0,35.13.58L34.41.45l-.76-.1a15.27,15.27,0,0,0-6,.5,12.94,12.94,0,0,0-2.83,1.24A12,12,0,0,0,22.34,4,11,11,0,0,0,20.5,6.57,12.28,12.28,0,0,0,19.85,8a2,2,0,0,0,0,1.52c.17.32.64.32.88.31,15.78-.42,20.49,9.82,33.82,5.82-.38.11-.85.43-1.49.7a17.16,17.16,0,0,1-2.57.85,22.41,22.41,0,0,1-3.45.56,31.35,31.35,0,0,1-4.14,0c-1.47-.09-3-.25-4.6-.5-3.18-.49-6.52-1.26-9.88-2s-6.74-1.59-10-2.09a42.33,42.33,0,0,0-4.76-.47,24.86,24.86,0,0,0-4.38.22,16.57,16.57,0,0,0-3.69.95,15.31,15.31,0,0,0-2.67,1.36c-.34.24-.65.44-.91.66l-.37.3-.16.13-.12.1-.47.42,0,.05a1.45,1.45,0,1,0,2,2.05l.44-.44.11-.11.11-.1.26-.22c.17-.17.43-.35.69-.56a11.93,11.93,0,0,1,2.11-1.22,14.81,14.81,0,0,1,3.09-1,22.55,22.55,0,0,1,3.95-.4,39.94,39.94,0,0,1,4.54.21l.47,0v.1c.05.3.11.62.16.93A18.64,18.64,0,0,0,19.25,18a16.08,16.08,0,0,0,1.52,3.42,15,15,0,0,0,2.3,2.95A16.59,16.59,0,0,0,26,26.7a19.88,19.88,0,0,0,6.87,2.58,25,25,0,0,0,7.27.23,26.29,26.29,0,0,0,7-1.78A23.63,23.63,0,0,0,53.4,24a19.76,19.76,0,0,0,7-12.37A.39.39,0,0,0,60.39,11.5Z"/></svg>